<svg version="1.2" xmlns="http://www.w3.org/2000/svg" viewBox="0 0 170 132" width="170" height="132"><style>.a{fill:#c3c3c3}</style><path fill-rule="evenodd" class="a" d="m52 116c-27.7 0-50-22.4-50-50 0-27.7 22.3-50 50-50 27.6 0 50 22.3 50 50 0 27.6-22.4 50-50 50zm34-49.5c0-19.1-15.4-34.5-34.5-34.5-19.1 0-34.5 15.4-34.5 34.5 0 19.1 15.4 34.5 34.5 34.5 19.1 0 34.5-15.4 34.5-34.5z"/><path fill-rule="evenodd" class="a" d="m102 63.9v52.1h-15.6v-52.1z"/><path fill-rule="evenodd" class="a" d="m167.5 32c-18.9 0-34.2 15.2-34.5 34h-15c0-27.7 22.3-50 50-50v16q-0.2 0-0.5 0z"/><path fill-rule="evenodd" class="a" d="m133 66v50h-15v-50z"/></svg>