<svg version="1.2" xmlns="http://www.w3.org/2000/svg" viewBox="0 0 168 132" width="168" height="132"><style>.a{fill:#c3c3c3}</style><path fill-rule="evenodd" class="a" d="m51 116c-27.7 0-50-22.4-50-50 0-27.7 22.3-50 50-50 27.6 0 50 22.3 50 50 0 27.6-22.4 50-50 50zm30-50c0-16.6-13.4-30-30-30-16.6 0-30 13.4-30 30 0 16.6 13.4 30 30 30 16.6 0 30-13.4 30-30z"/><path fill-rule="evenodd" class="a" d="m118 66c0-27.7 22.3-50 50-50v20c-16.6 0-30 13.4-30 30z"/><path class="a" d=""/><path fill-rule="evenodd" class="a" d="m138 66v50h-20v-50z"/><path fill-rule="evenodd" class="a" d="m101 66v50h-20v-50z"/></svg>