<svg version="1.2" xmlns="http://www.w3.org/2000/svg" viewBox="0 0 170 170" width="170" height="170"><style>.a{fill:#c3c3c3}</style><path fill-rule="evenodd" class="a" d="m51 148c-27.7 0-50-22.4-50-50 0-27.7 22.3-50 50-50 27.6 0 50 22.3 50 50 0 27.6-22.4 50-50 50zm37-50c0-21-17-38-38-38-21 0-38 17-38 38 0 21 17 38 38 38 21 0 38-17 38-38z"/><path fill-rule="evenodd" class="a" d="m101 98v50h-12v-50z"/><path fill-rule="evenodd" class="a" d="m119 98c0-27.4 21.8-49.5 49-50v12c-21 0-38 17-38 38z"/><path fill-rule="evenodd" class="a" d="m130 98v50h-11v-50z"/></svg>