<svg version="1.2" xmlns="http://www.w3.org/2000/svg" viewBox="0 0 256 128" width="256" height="128">
	<title>art-logo</title>
	<style>
		tspan { white-space:pre } 
		.s0 { fill: #ff9501 } 
		.s1 { fill: #000000 } 
	</style>
	<g id="art">
		<path id="모양 1" fill-rule="evenodd" class="s0" d="m51 128c-27.7 0-50-22.4-50-50 0-27.7 22.3-50 50-50 27.6 0 50 22.3 50 50 0 27.6-22.4 50-50 50zm30-50c0-16.6-13.4-30-30-30-16.6 0-30 13.4-30 30 0 16.6 13.4 30 30 30 16.6 0 30-13.4 30-30z"/>
		<path id="모양 1 copy" fill-rule="evenodd" class="s0" d="m118 78c0-27.7 22.3-50 50-50v20c-16.6 0-30 13.4-30 30z"/>
		<path id="모양 4" class="s0" d=""/>
		<path id="모양 2" fill-rule="evenodd" class="s1" d="m228 0v128h-20v-128z"/>
		<path id="모양 2 copy" fill-rule="evenodd" class="s1" d="m180 28h76v20h-76z"/>
		<path id="모양 3" fill-rule="evenodd" class="s0" d="m138 78v50h-20v-50z"/>
		<path id="모양 3 copy" fill-rule="evenodd" class="s0" d="m101 78v50h-20v-50z"/>
	</g>
</svg>